<svg width="63" height="63" viewBox="0 0 63 63" fill="none" xmlns="http://www.w3.org/2000/svg">
<path d="M48.2344 53.8106V45.0062H54.1406V55.7671C54.1406 56.8049 53.7258 57.8002 52.9874 58.534C52.2489 59.2679 51.2474 59.6801 50.2031 59.6801H48.2344V53.8106Z" fill="#F6BB92"/>
<path d="M52.8789 39.1367L53.8269 36.8178L54.6677 34.7611C55.1181 33.6553 55.2393 32.4359 55.0157 31.2586C54.7921 30.0813 54.2339 28.9995 53.4123 28.1511C52.3157 27.0187 51.6997 25.4829 51.6998 23.8816V18.2671H27.0505V23.882C27.0505 25.4834 26.4345 27.0191 25.3379 28.1516C24.5163 28.9999 23.9581 30.0816 23.7344 31.2588C23.5107 32.436 23.6317 33.6553 24.082 34.7611L24.972 36.9468L52.8789 39.1367Z" fill="#834B10"/>
<path d="M54.1406 40.1959C54.1406 38.8065 53.6447 37.4621 52.741 36.402C51.8373 35.3418 50.5844 34.6346 49.2053 34.4062L48.2344 34.2454L43.1507 33.4034L39.375 37.1802L35.5596 33.3743L28.5469 34.2454V59.6802H48.2344V51.8541C49.1248 50.9688 49.687 49.8097 49.8292 48.5661C49.9713 47.3224 49.6851 46.0675 49.0172 45.0063H54.1406V40.1959Z" fill="#5D62B5"/>
<path d="M52.5 23.4845H26.25V16.1188C26.25 12.5373 27.6328 9.10257 30.0942 6.57011C32.5556 4.03765 35.894 2.61493 39.375 2.61493C42.856 2.61493 46.1944 4.03765 48.6558 6.57011C51.1172 9.10257 52.5 12.5373 52.5 16.1188V23.4845Z" fill="#834B10"/>
<path d="M47.25 16.6367V15.6584L46.2656 10.7671H32.4844L31.5 15.6584V16.6367C30.7168 16.6367 29.9656 16.9459 29.4118 17.4962C28.858 18.0466 28.5469 18.7931 28.5469 19.5714C28.5469 20.3498 28.858 24.2385 29.4118 24.7888C29.9656 25.3392 29.6863 24.6287 30.4695 24.6287L30.1875 24.7888H31.5C31.5 26.605 33.2103 27.0424 34.5026 28.3266C35.7948 29.6108 37.5475 30.3323 39.375 30.3323C41.2025 30.3323 42.9552 29.6108 44.2474 28.3266C45.5397 27.0424 46.2656 26.4448 46.2656 24.6287L47.25 24.7888H48.5625C49.3457 24.7888 48.7844 25.179 49.3382 24.6287C49.892 24.0783 50.2031 20.3498 50.2031 19.5714C50.2031 18.7931 49.892 18.0466 49.3382 17.4962C48.7844 16.9459 48.0332 16.6367 47.25 16.6367Z" fill="#F6BB92"/>
<path d="M38.3906 40.9159V59.6802H16.3652C17.0995 58.5442 17.9542 57.4898 18.9148 56.5351L18.9874 56.4629C20.7474 54.7167 22.1554 52.6522 23.1353 50.3806C23.5216 49.4855 23.9068 48.5904 24.1873 47.941C24.442 47.3504 24.6094 46.9628 24.6094 46.9628H21.7768C20.8989 46.962 20.0464 46.67 19.3545 46.1331C18.6626 45.5961 18.1709 44.8449 17.9575 43.9986L17.4727 42.0715L17.3459 41.5677C17.2734 41.2792 17.2679 40.9782 17.33 40.6874C17.392 40.3965 17.52 40.1236 17.7041 39.8892C17.8881 39.6549 18.1236 39.4653 18.3924 39.3349C18.6612 39.2045 18.9565 39.1367 19.2556 39.1367H22.6406C23.2753 37.2426 24.5712 35.6368 26.2939 34.6098L26.7246 34.3542C27.8317 33.6944 29.0883 33.3226 30.3783 33.2732C31.6683 33.2239 32.95 33.4985 34.1049 34.0717L34.148 34.0938C35.4228 34.7273 36.495 35.701 37.2443 36.906C37.9937 38.1109 38.3906 39.4994 38.3906 40.9159Z" fill="#4B4B4B"/>
<path d="M38.3906 41.0932V43.869C38.3906 44.485 38.1956 45.0853 37.8332 45.585C37.4707 46.0847 36.9593 46.4584 36.3713 46.6531C35.7652 46.8539 35.1098 46.8539 34.5037 46.6531C33.9157 46.4584 33.4043 46.0847 33.0418 45.585C32.6794 45.0853 32.4844 44.485 32.4844 43.869V39.1367H36.4219L38.3906 41.0932Z" fill="black"/>
<path d="M29.2431 45.6983L27.2744 47.6549C27.0896 47.8382 26.8391 47.9411 26.5779 47.941H24.1871C24.4418 47.3504 24.6092 46.9627 24.6092 46.9627H21.7767C20.818 46.9636 19.8923 46.6156 19.1742 45.9845H26.1707L27.8502 44.3141C28.035 44.1305 28.2855 44.0274 28.5467 44.0274C28.8079 44.0274 29.0584 44.1305 29.2431 44.3141C29.4278 44.4977 29.5316 44.7466 29.5316 45.0062C29.5316 45.2658 29.4278 45.5148 29.2431 45.6983Z" fill="black"/>
<path d="M20.6719 39.1367V40.319C20.6719 40.7838 20.4861 41.2295 20.1554 41.5582C19.8247 41.8868 19.3762 42.0714 18.9085 42.0714H17.4727L17.3459 41.5676C17.2734 41.2792 17.2679 40.9782 17.33 40.6873C17.392 40.3965 17.52 40.1235 17.7041 39.8892C17.8881 39.6549 18.1236 39.4653 18.3924 39.3349C18.6612 39.2045 18.9565 39.1367 19.2556 39.1367H20.6719Z" fill="black"/>
<path d="M23.7251 57.2638C23.5424 57.2637 23.3633 57.213 23.2079 57.1174C23.0525 57.0218 22.9269 56.8852 22.8452 56.7227C22.7636 56.5602 22.729 56.3784 22.7455 56.1975C22.7619 56.0166 22.8287 55.8439 22.9384 55.6986C24.1124 54.1438 25.0261 52.4108 25.6442 50.5665C25.6841 50.4435 25.7482 50.3295 25.8327 50.2312C25.9172 50.1329 26.0205 50.0523 26.1365 49.9939C26.2526 49.9355 26.3791 49.9006 26.5089 49.8911C26.6386 49.8816 26.769 49.8978 26.8924 49.9387C27.0158 49.9796 27.1298 50.0444 27.2279 50.1293C27.3259 50.2143 27.4061 50.3177 27.4637 50.4336C27.5213 50.5495 27.5552 50.6756 27.5634 50.8046C27.5717 50.9336 27.5541 51.063 27.5118 51.1852C26.8269 53.229 25.8144 55.1495 24.5134 56.8725C24.4217 56.9942 24.3027 57.0929 24.1658 57.1608C24.029 57.2288 23.8781 57.264 23.7251 57.2638Z" fill="black"/>
<path d="M31.5 16.6367C32.4254 16.3302 33.2725 15.8269 33.9823 15.1619C34.6921 14.4969 35.2474 13.6862 35.6098 12.7861L36.4219 10.7671L31.5 9.78885V16.6367Z" fill="#834B10"/>
<path d="M36.4219 10.7671L36.5372 10.9389C37.7129 12.6916 39.3059 14.1287 41.1747 15.1227C43.0435 16.1166 45.1304 16.6367 47.25 16.6367V9.78885L36.4219 10.7671Z" fill="#834B10"/>
<path d="M35.3555 20.7127C36.035 20.7127 36.5859 20.1653 36.5859 19.4899C36.5859 18.8146 36.035 18.2671 35.3555 18.2671C34.6759 18.2671 34.125 18.8146 34.125 19.4899C34.125 20.1653 34.6759 20.7127 35.3555 20.7127Z" fill="black"/>
<path d="M40.6055 20.7127C41.285 20.7127 41.8359 20.1653 41.8359 19.4899C41.8359 18.8146 41.285 18.2671 40.6055 18.2671C39.9259 18.2671 39.375 18.8146 39.375 19.4899C39.375 20.1653 39.9259 20.7127 40.6055 20.7127Z" fill="black"/>
<path d="M45.2812 42.0714C45.0202 42.0714 44.7698 41.9684 44.5852 41.7849C44.4006 41.6015 44.2969 41.3526 44.2969 41.0932V34.2454C44.2969 33.9859 44.4006 33.7371 44.5852 33.5536C44.7698 33.3702 45.0202 33.2671 45.2812 33.2671C45.5423 33.2671 45.7927 33.3702 45.9773 33.5536C46.1619 33.7371 46.2656 33.9859 46.2656 34.2454V41.0932C46.2656 41.3526 46.1619 41.6015 45.9773 41.7849C45.7927 41.9684 45.5423 42.0714 45.2812 42.0714Z" fill="#C3C3C3"/>
<path d="M45.2812 46.9628C46.9122 46.9628 48.2344 45.6488 48.2344 44.028C48.2344 42.4071 46.9122 41.0932 45.2812 41.0932C43.6503 41.0932 42.3281 42.4071 42.3281 44.028C42.3281 45.6488 43.6503 46.9628 45.2812 46.9628Z" fill="#E4E4E2"/>
<path d="M45.2812 45.0062C45.8249 45.0062 46.2656 44.5682 46.2656 44.0279C46.2656 43.4877 45.8249 43.0497 45.2812 43.0497C44.7376 43.0497 44.2969 43.4877 44.2969 44.0279C44.2969 44.5682 44.7376 45.0062 45.2812 45.0062Z" fill="#C3C3C3"/>
<path d="M49.2188 59.6801H34.4531C33.6699 59.6801 32.9188 59.3709 32.365 58.8206C31.8111 58.2702 31.5 57.5237 31.5 56.7454C31.5 55.967 31.8111 55.2205 32.365 54.6702C32.9188 54.1198 33.6699 53.8106 34.4531 53.8106H35.4375C35.4375 53.2917 35.6449 52.794 36.0141 52.4271C36.3833 52.0602 36.8841 51.8541 37.4062 51.8541H37.5752C38.0973 51.8541 38.598 52.0602 38.9672 52.4271L40.3594 53.8106H49.2188V59.6801Z" fill="#F6BB92"/>
<path d="M16.4747 55.1388C16.3292 55.459 16.255 55.8066 16.2571 56.1579C16.2592 56.5092 16.3376 56.8558 16.4869 57.1743C16.6362 57.4927 16.8529 57.7753 17.1222 58.0028C17.3915 58.2304 17.7071 58.3975 18.0473 58.4927L21.8365 59.5565C22.5901 59.7682 23.3976 59.6737 24.0811 59.2937C24.7647 58.9138 25.2683 58.2796 25.4813 57.5306C25.6943 56.7816 25.5991 55.9792 25.2168 55.3C24.8345 54.6208 24.1963 54.1202 23.4427 53.9086L22.4952 53.6426C22.5656 53.3953 22.5862 53.1367 22.556 52.8816C22.5257 52.6264 22.4452 52.3796 22.319 52.1554C22.1928 51.9311 22.0234 51.7338 21.8205 51.5746C21.6175 51.4154 21.385 51.2975 21.1362 51.2276L20.9736 51.182C20.7248 51.1121 20.4646 51.0917 20.2079 51.1217C19.9511 51.1518 19.7028 51.2318 19.4772 51.3572C18.3612 51.9776 17.4749 52.9374 16.9487 54.0955L16.4747 55.1388Z" fill="#F6BB92"/>
<path d="M11.4496 23.4845C12.3914 23.4846 13.2946 23.9158 13.9606 24.6833L15.7498 26.7455L17.5389 24.6833C18.2049 23.9158 19.1081 23.4846 20.0499 23.4845C20.8419 23.4845 21.6113 23.7896 22.2355 24.3514C22.8598 24.9132 23.3033 25.6994 23.4953 26.5851C23.7126 27.5864 23.6558 28.6406 23.3329 29.6033C23.01 30.566 22.4367 31.3901 21.6916 31.9626L15.75 36.528L9.8084 31.9626C9.06327 31.3901 8.48997 30.566 8.16706 29.6033C7.84416 28.6406 7.78745 27.5864 8.0047 26.5851C8.19674 25.6995 8.64009 24.9134 9.26427 24.3516C9.88845 23.7898 10.6576 23.4846 11.4496 23.4845Z" fill="#5D62B5"/>
<path d="M31.5 16.6367H32.4844V22.5062H31.5V16.6367Z" fill="#EEB58E"/>
<path d="M46.2656 16.6367H47.25V22.5062H46.2656V16.6367Z" fill="#EEB58E"/>
<path d="M35.5597 33.3742L39.3752 37.1802L43.1509 33.4033C42.921 33.3653 42.7122 33.2474 42.5616 33.0707C42.411 32.894 42.3283 32.67 42.3283 32.4384V29.3541H36.422V32.4035C36.422 32.642 36.3344 32.8722 36.1756 33.051C36.0168 33.2297 35.7978 33.3447 35.5597 33.3742Z" fill="#F6BB92"/>
<path d="M39.375 31.3106C36.5902 31.3106 33.9195 30.3486 31.9504 28.6363C29.9812 26.924 28.875 24.6017 28.875 22.1801V20.8758H49.875V22.1801C49.875 24.6017 48.7688 26.924 46.7996 28.6363C44.8305 30.3486 42.1598 31.3106 39.375 31.3106Z" fill="#5D62B5"/>
<path d="M27.5625 41.0932C28.1062 41.0932 28.5469 40.6552 28.5469 40.1149C28.5469 39.5746 28.1062 39.1367 27.5625 39.1367C27.0188 39.1367 26.5781 39.5746 26.5781 40.1149C26.5781 40.6552 27.0188 41.0932 27.5625 41.0932Z" fill="black"/>
</svg>
