<svg width="63" height="63" viewBox="0 0 63 63" fill="none" xmlns="http://www.w3.org/2000/svg">
<g clip-path="url(#clip0_1_318)">
<path d="M60.0469 26.0681V27.4468C60.0469 31.7815 59.06 36.0488 57.1744 39.8676C55.2888 43.6863 52.5632 46.9377 49.2409 49.3313L38.3906 57.1481L34.4531 59.9844L31.5 62.1126L30.5156 61.4112L27.5625 59.3057L26.1475 58.2979L15.5371 50.7367L14.143 49.7435L13.8588 49.5401C10.5087 47.1525 7.75774 43.8953 5.85386 40.0624C3.94998 36.2295 2.9531 31.9413 2.95313 27.5847V24.4887C2.9532 21.0876 3.84488 17.757 5.52357 14.8877C6.84733 12.6241 8.67475 10.7606 10.8366 9.46952C12.9984 8.17847 15.4248 7.50168 17.891 7.50183H18.2638C20.5397 7.50195 22.7843 8.07845 24.8198 9.1857C26.8554 10.2929 28.626 11.9005 29.9914 13.8811L31.5 16.0682L33.0086 13.8811C34.4598 11.776 36.3674 10.0943 38.5612 8.9859C40.755 7.87749 43.1669 7.37683 45.5818 7.52857C47.9966 7.68031 50.3395 8.47973 52.4014 9.85555C54.4632 11.2314 56.1801 13.1408 57.3989 15.4137C59.1324 18.6479 60.0461 22.3244 60.0469 26.0681Z" fill="#5D62B5"/>
<path d="M34.4531 50.8691V59.9709V59.9843L38.3906 57.148V47.5229L34.4531 50.8691Z" fill="#EA9D2D"/>
<path d="M44.2968 22.493V25.17C44.2969 25.5216 44.2333 25.8697 44.1097 26.1945C43.9861 26.5194 43.8048 26.8145 43.5762 27.0631C43.3477 27.3117 43.0764 27.5089 42.7778 27.6434C42.4791 27.7779 42.1591 27.8471 41.8359 27.847H39.375V34.2718L39.0147 35.3442L39.6383 36.4134L40.1182 40.3271C40.2362 41.2851 40.2733 42.2529 40.2289 43.2183C40.145 45.0533 39.4977 46.8047 38.3906 48.1922L34.4531 51.4046V59.9843L31.5 62.1125L30.5156 61.4112V53.5462L26.1474 58.2978L15.5371 50.7366L23.6249 38.555L25.5937 35.3426L28.1715 32.5384L29.475 32.1913L29.5312 31.0594V28.0772C29.5314 25.1869 30.587 22.4151 32.4659 20.3715C33.1084 19.6733 33.9793 19.2809 34.8874 19.2806H37.0186C37.8974 19.2808 38.7401 19.6607 39.3614 20.3367L41.3437 22.493H44.2968Z" fill="#FBB540"/>
<path d="M35.4375 22.493H37.4062V24.6346H35.4375V22.493Z" fill="#985713"/>
<path d="M39.6385 36.4134H38.2185C36.2373 36.4106 34.2836 35.9089 32.5103 34.9478L28.1717 32.5385L29.5314 31.0595V30.8895L33.3987 33.0364C34.8961 33.8474 36.5458 34.2703 38.2185 34.2718H39.3752L39.6385 36.4134Z" fill="#5D62B5"/>
<path d="M31.745 32.1302H29.5312V29.9886H31.745C31.941 29.9883 32.129 29.9035 32.2676 29.7527C32.4062 29.6019 32.4842 29.3974 32.4844 29.1841V25.7054H34.4531V29.1841C34.4523 29.9652 34.1667 30.714 33.659 31.2663C33.1513 31.8186 32.463 32.1293 31.745 32.1302Z" fill="#985713"/>
<path d="M31.5001 38.555V40.6966C31.5 41.5485 31.1888 42.3655 30.635 42.9678C30.0812 43.5702 29.3302 43.9088 28.547 43.909V47.804C28.5474 48.7555 28.2883 49.6857 27.8026 50.477L26.5783 52.4754V55.6878L26.9363 56.4668L27.2341 57.1159L27.5626 57.8294V59.3057L26.1476 58.2978L15.5373 50.7367L14.1432 49.7435L19.6876 40.6966V37.345C19.6876 37.2633 19.6889 37.1803 19.6913 37.0987C19.7537 35.5327 20.2999 34.0353 21.2417 32.849L22.6408 31.0594L23.6251 35.3426H25.9822C26.4684 35.3426 26.9469 35.4732 27.3755 35.7228C27.804 35.9724 28.1693 36.3333 28.4387 36.7734C28.775 37.3214 29.2303 37.7706 29.7643 38.0814C30.2983 38.3922 30.8945 38.5548 31.5001 38.555Z" fill="#E4E4E2"/>
<path d="M24.6094 38.555H26.5781V40.6966H24.6094V38.555Z" fill="#29C3BE"/>
</g>
<defs>
<clipPath id="clip0_1_318">
<rect width="63" height="62.6087" fill="white" transform="translate(0 0.00622559)"/>
</clipPath>
</defs>
</svg>
