<svg width="63" height="63" viewBox="0 0 63 63" fill="none" xmlns="http://www.w3.org/2000/svg">
<path d="M58.3836 5.2236H4.61638C3.51657 5.2236 2.625 6.11347 2.625 7.21118V44.9752C2.625 46.0729 3.51657 46.9627 4.61638 46.9627H58.3836C59.4834 46.9627 60.375 46.0729 60.375 44.9752V7.21118C60.375 6.11347 59.4834 5.2236 58.3836 5.2236Z" fill="#5D62B5"/>
<path d="M27.5625 24.1367L21.6562 30.0063C21.4803 29.9194 21.3097 29.8253 21.1444 29.7238C20.1658 29.1335 19.3449 28.3175 18.7511 27.3449C18.1574 26.3723 17.8083 25.2718 17.7335 24.1367C17.7237 23.9838 17.7188 23.8298 17.7188 23.6745V21.2019H23.625L27.5625 24.1367Z" fill="#F3AF3E"/>
<path d="M25.5938 27.0714L23.1328 28.5388L21.1444 29.7238C20.1658 29.1335 19.3449 28.3175 18.7512 27.3449C18.1574 26.3723 17.8083 25.2718 17.7335 24.1367H22.7305L25.109 26.575L25.5938 27.0714Z" fill="#5B3726"/>
<path d="M45.2812 21.2019V23.6745C45.2812 23.8298 45.2763 23.9838 45.2665 24.1367C45.1848 25.3701 44.7797 26.5609 44.0916 27.5906C43.4034 28.6203 42.4561 29.4531 41.3438 30.0063L35.4375 24.1367L39.375 21.2019H45.2812Z" fill="#F3AF3E"/>
<path d="M45.2665 24.1367C45.1968 25.1947 44.8889 26.2236 44.3654 27.1475C43.8419 28.0713 43.1162 28.8665 42.242 29.4743L39.375 28.0497L37.4062 27.0714L37.8911 26.575L40.2695 24.1367H45.2665Z" fill="#5B3726"/>
<path d="M42.3281 31.9628V44.6802H20.6719V31.9628C20.6719 29.1088 21.8127 26.3717 23.8434 24.3537C25.874 22.3356 28.6282 21.2019 31.5 21.2019C34.3718 21.2019 37.126 22.3356 39.1566 24.3537C41.1873 26.3717 42.3281 29.1088 42.3281 31.9628Z" fill="#F3AF3E"/>
<path d="M26.2686 28.115L29.2227 27.1374L29.8448 28.9943L26.8907 29.9718L26.2686 28.115Z" fill="#D18D28"/>
<path d="M33.1573 28.9615L33.7795 27.1047L36.7336 28.0822L36.1114 29.9391L33.1573 28.9615Z" fill="#D18D28"/>
<path d="M37.6305 35.6691L36.75 33.9193C35.9699 34.3043 33.3195 36.4405 32.4849 36.1927V33.9193H30.5162V36.1937C29.6815 36.4412 27.0301 34.3042 26.25 33.9193L25.3694 35.6691C26.0452 36.0032 28.5372 38.2533 29.2913 38.2863C30.0453 38.3193 30.7979 38.1949 31.5006 37.9211C32.2033 38.1948 32.9559 38.3191 33.7099 38.286C34.4639 38.2529 36.9548 36.0033 37.6305 35.6691Z" fill="#744630"/>
<path d="M23.625 41.7453C23.6256 42.0888 23.5348 42.4263 23.3617 42.7236H20.6719V38.8105C21.4551 38.8105 22.2062 39.1197 22.76 39.6701C23.3139 40.2205 23.625 40.967 23.625 41.7453Z" fill="#D18D28"/>
<path d="M42.3281 38.8105V42.7236H39.6383C39.4652 42.4263 39.3744 42.0888 39.375 41.7453C39.375 40.967 39.6861 40.2205 40.24 39.6701C40.7938 39.1197 41.5449 38.8105 42.3281 38.8105Z" fill="#D18D28"/>
<path d="M20.6719 43.7019H18.7031C18.181 43.7019 17.6802 43.4957 17.311 43.1288C16.9418 42.7619 16.7344 42.2642 16.7344 41.7453C16.7344 40.967 17.0455 40.2205 17.5993 39.6701C18.1531 39.1197 18.9043 38.8105 19.6875 38.8105C20.4707 38.8105 21.2219 39.1197 21.7757 39.6701C22.3295 40.2205 22.6406 40.967 22.6406 41.7453C22.6406 42.2642 22.4332 42.7619 22.064 43.1288C21.6948 43.4957 21.194 43.7019 20.6719 43.7019Z" fill="#F3AF3E"/>
<path d="M44.2969 43.7019H42.3281C41.806 43.7019 41.3052 43.4957 40.936 43.1288C40.5668 42.7619 40.3594 42.2642 40.3594 41.7453C40.3594 40.967 40.6705 40.2205 41.2243 39.6701C41.7781 39.1197 42.5293 38.8105 43.3125 38.8105C44.0957 38.8105 44.8469 39.1197 45.4007 39.6701C45.9545 40.2205 46.2656 40.967 46.2656 41.7453C46.2656 42.2642 46.0582 42.7619 45.689 43.1288C45.3198 43.4957 44.819 43.7019 44.2969 43.7019Z" fill="#F3AF3E"/>
<path d="M31.5 34.8975C30.9779 34.8975 30.4771 34.6914 30.1079 34.3245C29.7387 33.9576 29.5312 33.4599 29.5312 32.941V30.9845H33.4688V32.941C33.4688 33.4599 33.2613 33.9576 32.8921 34.3245C32.5229 34.6914 32.0221 34.8975 31.5 34.8975Z" fill="#5B3726"/>
<path d="M40.3594 53.1584H22.6406L22.8092 52.9908C24.5912 51.2186 25.5927 48.816 25.5938 46.3105H37.4062C37.4064 48.8161 38.408 51.2191 40.1908 52.9908L40.3594 53.1584Z" fill="#D9D9D9"/>
<path d="M58.3836 46.9627H4.61638C4.08823 46.9627 3.58172 46.7429 3.20826 46.3515C2.83481 45.9601 2.625 45.4293 2.625 44.8758V41.7454H60.375V44.8758C60.375 45.4293 60.1652 45.9601 59.7917 46.3515C59.4183 46.7429 58.9118 46.9627 58.3836 46.9627Z" fill="#E4E4E2"/>
<path d="M22.6406 53.1584H40.3594C40.8815 53.1584 41.3823 53.3645 41.7515 53.7314C42.1207 54.0984 42.3281 54.596 42.3281 55.1149V57.0714H20.6719V55.1149C20.6719 54.596 20.8793 54.0984 21.2485 53.7314C21.6177 53.3645 22.1185 53.1584 22.6406 53.1584Z" fill="#E4E4E2"/>
<path d="M37.6127 48.2671H25.3867C25.5243 47.6239 25.5935 46.9681 25.5934 46.3105H37.4059C37.4058 46.9681 37.4751 47.6239 37.6127 48.2671Z" fill="#A8A8A8"/>
<ellipse cx="55.125" cy="10.441" rx="2.625" ry="2.6087" fill="#62B58F"/>
</svg>
